<svg width="29" height="28" viewBox="0 0 29 28" fill="none" xmlns="http://www.w3.org/2000/svg">
<path d="M6.79849 0C3.13571 0 0.152588 2.99244 0.152588 6.66667V21.3333C0.152588 25.0076 3.13571 28 6.79849 28H21.4195C25.0822 28 28.0654 25.0076 28.0654 21.3333V6.66667C28.0654 2.99244 25.0822 0 21.4195 0H6.79849ZM6.79849 1.33333H21.4195C24.364 1.33333 26.7362 3.71289 26.7362 6.66667V21.3333C26.7362 24.2871 24.364 26.6667 21.4195 26.6667H6.79849C3.85391 26.6667 1.48177 24.2871 1.48177 21.3333V6.66667C1.48177 3.71289 3.85391 1.33333 6.79849 1.33333ZM12.4955 5.26823C12.2401 5.25183 11.9763 5.30842 11.7388 5.44792C11.1054 5.82058 10.8935 6.6381 11.265 7.27344L12.4683 9.33333L8.57029 16.0065H5.46931C4.7356 16.0065 4.14013 16.6038 4.14013 17.3398C4.14013 18.0758 4.7356 18.6732 5.46931 18.6732H15.712C15.8164 18.1645 15.7526 17.6129 15.4602 17.1029L15.4576 17.1003C15.2004 16.6509 14.8437 16.2838 14.4283 16.0065H11.6518L16.7531 7.27214C17.1239 6.6368 16.9113 5.81992 16.278 5.44792C15.644 5.07592 14.8303 5.28915 14.4594 5.92448L14.009 6.69531L13.5586 5.92448C13.3264 5.5274 12.9213 5.29555 12.4955 5.26823ZM16.3091 10.6341L15.7601 11.5495C15.154 12.5601 15.1344 13.8111 15.6887 14.8438L19.8735 22.0078C20.1207 22.4318 20.5644 22.6667 21.021 22.6667C21.2489 22.6667 21.4807 22.6084 21.692 22.4844C22.3254 22.1124 22.5373 21.2955 22.1658 20.6602L21.0054 18.6732H22.7486C23.4823 18.6732 24.0778 18.0758 24.0778 17.3398C24.0778 16.6038 23.4823 16.0065 22.7486 16.0065H19.4478L16.3091 10.6341ZM7.21385 20.0091C6.84368 19.9984 6.48395 20.0561 6.14168 20.1641L5.84573 20.6693C5.47423 21.3039 5.68746 22.1215 6.32081 22.4935C6.53215 22.6182 6.76264 22.6771 6.99059 22.6771C7.44717 22.6771 7.89146 22.4403 8.13935 22.0169L8.85456 20.793C8.46578 20.3376 7.89762 20.0291 7.21775 20.0091H7.21385Z" fill="black"/>
</svg>
