<svg width="29" height="28" viewBox="0 0 29 28" fill="none" xmlns="http://www.w3.org/2000/svg">
<path d="M1.78105 0L16.695 13.0959L20.784 9.47927L2.70645 0.247451C2.40515 0.0927942 2.08234 0.00713815 1.78105 0ZM0.532836 0.609109C0.398331 0.82087 0.317627 1.0707 0.317627 1.35146V26.8008C0.317627 27.0054 0.366049 27.1886 0.446752 27.3528L15.7051 13.9524L0.532836 0.609109ZM22.0322 10.1074L17.6635 13.9524L22.0322 17.7784L27.3694 15.0755C28.128 14.6876 28.2356 14.1951 28.2302 13.9334C28.2221 13.5003 27.9128 13.0959 27.3909 12.8484C26.9363 12.6319 23.5602 10.8926 22.0322 10.1074ZM16.695 14.809L1.65192 28C1.9021 27.9881 2.1738 27.9405 2.42667 27.8097C3.01581 27.5075 14.9303 21.414 14.9303 21.414L20.8055 18.4256L16.695 14.809Z" fill="black"/>
</svg>
